<mxfile host="app.diagrams.net" modified="2023-05-15T16:35:08.573Z" agent="Mozilla/5.0 (Windows NT 10.0; Win64; x64) AppleWebKit/537.36 (KHTML, like Gecko) Chrome/113.0.0.0 Safari/537.36" etag="HAblXIgMzPFiSeXOLpKW" version="21.2.9" type="device">
  <diagram id="C5RBs43oDa-KdzZeNtuy" name="Page-1">
    <mxGraphModel dx="1195" dy="1832" grid="1" gridSize="10" guides="1" tooltips="1" connect="1" arrows="1" fold="1" page="1" pageScale="1" pageWidth="827" pageHeight="1169" math="0" shadow="0">
      <root>
        <mxCell id="WIyWlLk6GJQsqaUBKTNV-0" />
        <mxCell id="WIyWlLk6GJQsqaUBKTNV-1" parent="WIyWlLk6GJQsqaUBKTNV-0" />
        <mxCell id="xz_jrUkNwj7nFp_zfLoB-0" value="Author" style="verticalLabelPosition=bottom;verticalAlign=top;html=1;shape=mxgraph.basic.star;fillColor=#dae8fc;strokeColor=#6c8ebf;gradientColor=#7ea6e0;" parent="WIyWlLk6GJQsqaUBKTNV-1" vertex="1">
          <mxGeometry x="90" y="80" width="100" height="95" as="geometry" />
        </mxCell>
        <mxCell id="xz_jrUkNwj7nFp_zfLoB-6" value="Main smart contract" style="strokeWidth=2;html=1;shape=mxgraph.flowchart.database;whiteSpace=wrap;" parent="WIyWlLk6GJQsqaUBKTNV-1" vertex="1">
          <mxGeometry x="570" y="80" width="120" height="122" as="geometry" />
        </mxCell>
        <mxCell id="xz_jrUkNwj7nFp_zfLoB-13" value="" style="endArrow=classic;html=1;rounded=0;exitX=-0.025;exitY=0.279;exitDx=0;exitDy=0;exitPerimeter=0;dashed=1;" parent="WIyWlLk6GJQsqaUBKTNV-1" source="xz_jrUkNwj7nFp_zfLoB-6" edge="1">
          <mxGeometry relative="1" as="geometry">
            <mxPoint x="350" y="30" as="sourcePoint" />
            <mxPoint x="190" y="141" as="targetPoint" />
            <Array as="points">
              <mxPoint x="260" y="110" />
            </Array>
          </mxGeometry>
        </mxCell>
        <mxCell id="xz_jrUkNwj7nFp_zfLoB-14" value="get&amp;nbsp;priceToMint()" style="edgeLabel;resizable=0;html=1;align=center;verticalAlign=middle;" parent="xz_jrUkNwj7nFp_zfLoB-13" connectable="0" vertex="1">
          <mxGeometry relative="1" as="geometry" />
        </mxCell>
        <mxCell id="xz_jrUkNwj7nFp_zfLoB-15" value="" style="endArrow=classic;html=1;rounded=0;shape=flexArrow;" parent="WIyWlLk6GJQsqaUBKTNV-1" edge="1">
          <mxGeometry relative="1" as="geometry">
            <mxPoint x="180" y="146" as="sourcePoint" />
            <mxPoint x="570" y="146" as="targetPoint" />
          </mxGeometry>
        </mxCell>
        <mxCell id="xz_jrUkNwj7nFp_zfLoB-16" value="safeMint(), pay BNB" style="edgeLabel;resizable=0;html=1;align=center;verticalAlign=middle;" parent="xz_jrUkNwj7nFp_zfLoB-15" connectable="0" vertex="1">
          <mxGeometry relative="1" as="geometry" />
        </mxCell>
        <mxCell id="xz_jrUkNwj7nFp_zfLoB-17" value="" style="endArrow=classic;html=1;rounded=0;entryX=1;entryY=0.367;entryDx=0;entryDy=0;entryPerimeter=0;exitX=-0.042;exitY=0.582;exitDx=0;exitDy=0;exitPerimeter=0;" parent="WIyWlLk6GJQsqaUBKTNV-1" source="xz_jrUkNwj7nFp_zfLoB-6" edge="1">
          <mxGeometry relative="1" as="geometry">
            <mxPoint x="567" y="175" as="sourcePoint" />
            <mxPoint x="170" y="176" as="targetPoint" />
            <Array as="points">
              <mxPoint x="490" y="180" />
            </Array>
          </mxGeometry>
        </mxCell>
        <mxCell id="xz_jrUkNwj7nFp_zfLoB-18" value="get NFT token" style="edgeLabel;resizable=0;html=1;align=center;verticalAlign=middle;" parent="xz_jrUkNwj7nFp_zfLoB-17" connectable="0" vertex="1">
          <mxGeometry relative="1" as="geometry" />
        </mxCell>
        <mxCell id="xz_jrUkNwj7nFp_zfLoB-19" value="Author with NFT" style="verticalLabelPosition=bottom;verticalAlign=top;html=1;shape=mxgraph.basic.star;fillColor=#ffcd28;strokeColor=#d79b00;gradientColor=#ffa500;" parent="WIyWlLk6GJQsqaUBKTNV-1" vertex="1">
          <mxGeometry x="310" y="360" width="100" height="95" as="geometry" />
        </mxCell>
        <mxCell id="xz_jrUkNwj7nFp_zfLoB-21" value="" style="endArrow=classic;html=1;rounded=0;exitX=0.5;exitY=0;exitDx=0;exitDy=0;exitPerimeter=0;entryX=0;entryY=0.85;entryDx=0;entryDy=0;entryPerimeter=0;dashed=1;" parent="WIyWlLk6GJQsqaUBKTNV-1" source="xz_jrUkNwj7nFp_zfLoB-19" target="xz_jrUkNwj7nFp_zfLoB-6" edge="1">
          <mxGeometry relative="1" as="geometry">
            <mxPoint x="190" y="340" as="sourcePoint" />
            <mxPoint x="460" y="350" as="targetPoint" />
          </mxGeometry>
        </mxCell>
        <mxCell id="xz_jrUkNwj7nFp_zfLoB-22" value="addDonateAddress()" style="edgeLabel;resizable=0;html=1;align=center;verticalAlign=middle;" parent="xz_jrUkNwj7nFp_zfLoB-21" connectable="0" vertex="1">
          <mxGeometry relative="1" as="geometry" />
        </mxCell>
        <mxCell id="xz_jrUkNwj7nFp_zfLoB-23" value="User" style="shape=umlActor;verticalLabelPosition=bottom;verticalAlign=top;html=1;outlineConnect=0;" parent="WIyWlLk6GJQsqaUBKTNV-1" vertex="1">
          <mxGeometry x="670" y="345" width="30" height="60" as="geometry" />
        </mxCell>
        <mxCell id="xz_jrUkNwj7nFp_zfLoB-24" value="Creator (contract owner)" style="verticalLabelPosition=bottom;verticalAlign=top;html=1;shape=mxgraph.basic.banner" parent="WIyWlLk6GJQsqaUBKTNV-1" vertex="1">
          <mxGeometry x="680" y="-70" width="100" height="50" as="geometry" />
        </mxCell>
        <mxCell id="xz_jrUkNwj7nFp_zfLoB-26" value="" style="endArrow=classic;html=1;rounded=0;exitX=0.25;exitY=0.1;exitDx=0;exitDy=0;exitPerimeter=0;entryX=1;entryY=0.367;entryDx=0;entryDy=0;entryPerimeter=0;shape=flexArrow;" parent="WIyWlLk6GJQsqaUBKTNV-1" source="xz_jrUkNwj7nFp_zfLoB-23" target="xz_jrUkNwj7nFp_zfLoB-19" edge="1">
          <mxGeometry relative="1" as="geometry">
            <mxPoint x="340" y="390" as="sourcePoint" />
            <mxPoint x="430" y="430" as="targetPoint" />
            <Array as="points">
              <mxPoint x="630" y="200" />
            </Array>
          </mxGeometry>
        </mxCell>
        <mxCell id="xz_jrUkNwj7nFp_zfLoB-27" value="Donation" style="edgeLabel;resizable=0;html=1;align=center;verticalAlign=middle;" parent="xz_jrUkNwj7nFp_zfLoB-26" connectable="0" vertex="1">
          <mxGeometry relative="1" as="geometry" />
        </mxCell>
        <mxCell id="xz_jrUkNwj7nFp_zfLoB-29" value="" style="endArrow=classic;html=1;rounded=0;exitX=0.5;exitY=1;exitDx=0;exitDy=0;exitPerimeter=0;shape=flexArrow;" parent="WIyWlLk6GJQsqaUBKTNV-1" source="xz_jrUkNwj7nFp_zfLoB-6" target="xz_jrUkNwj7nFp_zfLoB-24" edge="1">
          <mxGeometry width="50" height="50" relative="1" as="geometry">
            <mxPoint x="700" y="310" as="sourcePoint" />
            <mxPoint x="750" y="260" as="targetPoint" />
            <Array as="points">
              <mxPoint x="710" y="220" />
              <mxPoint x="710" y="30" />
            </Array>
          </mxGeometry>
        </mxCell>
        <mxCell id="xz_jrUkNwj7nFp_zfLoB-30" value="Donation fee" style="edgeLabel;html=1;align=center;verticalAlign=middle;resizable=0;points=[];" parent="xz_jrUkNwj7nFp_zfLoB-29" vertex="1" connectable="0">
          <mxGeometry x="0.1404" relative="1" as="geometry">
            <mxPoint as="offset" />
          </mxGeometry>
        </mxCell>
        <mxCell id="xz_jrUkNwj7nFp_zfLoB-38" value="" style="edgeStyle=orthogonalEdgeStyle;rounded=0;orthogonalLoop=1;jettySize=auto;html=1;shape=flexArrow;" parent="WIyWlLk6GJQsqaUBKTNV-1" source="xz_jrUkNwj7nFp_zfLoB-31" target="xz_jrUkNwj7nFp_zfLoB-37" edge="1">
          <mxGeometry relative="1" as="geometry" />
        </mxCell>
        <mxCell id="xz_jrUkNwj7nFp_zfLoB-40" value="Collecting donations" style="edgeLabel;html=1;align=center;verticalAlign=middle;resizable=0;points=[];" parent="xz_jrUkNwj7nFp_zfLoB-38" vertex="1" connectable="0">
          <mxGeometry x="0.1712" y="1" relative="1" as="geometry">
            <mxPoint x="-1" y="13" as="offset" />
          </mxGeometry>
        </mxCell>
        <mxCell id="xz_jrUkNwj7nFp_zfLoB-31" value="Private payment contract" style="strokeWidth=2;html=1;shape=mxgraph.flowchart.database;whiteSpace=wrap;" parent="WIyWlLk6GJQsqaUBKTNV-1" vertex="1">
          <mxGeometry x="770" y="80" width="120" height="122" as="geometry" />
        </mxCell>
        <mxCell id="xz_jrUkNwj7nFp_zfLoB-32" value="" style="endArrow=classic;html=1;rounded=0;entryX=0.5;entryY=1;entryDx=0;entryDy=0;entryPerimeter=0;exitX=0.25;exitY=0.1;exitDx=0;exitDy=0;exitPerimeter=0;shape=flexArrow;" parent="WIyWlLk6GJQsqaUBKTNV-1" source="xz_jrUkNwj7nFp_zfLoB-39" target="xz_jrUkNwj7nFp_zfLoB-31" edge="1">
          <mxGeometry relative="1" as="geometry">
            <mxPoint x="980" y="360" as="sourcePoint" />
            <mxPoint x="890" y="330" as="targetPoint" />
          </mxGeometry>
        </mxCell>
        <mxCell id="xz_jrUkNwj7nFp_zfLoB-33" value="Private donation" style="edgeLabel;resizable=0;html=1;align=center;verticalAlign=middle;" parent="xz_jrUkNwj7nFp_zfLoB-32" connectable="0" vertex="1">
          <mxGeometry relative="1" as="geometry" />
        </mxCell>
        <mxCell id="xz_jrUkNwj7nFp_zfLoB-37" value="Generate hashes chain by authors secret key" style="rounded=1;whiteSpace=wrap;html=1;strokeWidth=2;" parent="WIyWlLk6GJQsqaUBKTNV-1" vertex="1">
          <mxGeometry x="770" y="345" width="120" height="60" as="geometry" />
        </mxCell>
        <mxCell id="xz_jrUkNwj7nFp_zfLoB-39" value="User" style="shape=umlActor;verticalLabelPosition=bottom;verticalAlign=top;html=1;outlineConnect=0;" parent="WIyWlLk6GJQsqaUBKTNV-1" vertex="1">
          <mxGeometry x="980" y="310" width="30" height="60" as="geometry" />
        </mxCell>
        <mxCell id="xz_jrUkNwj7nFp_zfLoB-41" value="" style="endArrow=classic;html=1;rounded=0;exitX=0.5;exitY=1;exitDx=0;exitDy=0;exitPerimeter=0;shape=flexArrow;" parent="WIyWlLk6GJQsqaUBKTNV-1" source="xz_jrUkNwj7nFp_zfLoB-31" edge="1">
          <mxGeometry width="50" height="50" relative="1" as="geometry">
            <mxPoint x="640" y="212" as="sourcePoint" />
            <mxPoint x="734" y="-20" as="targetPoint" />
            <Array as="points">
              <mxPoint x="750" y="220" />
              <mxPoint x="750" y="40" />
            </Array>
          </mxGeometry>
        </mxCell>
        <mxCell id="xz_jrUkNwj7nFp_zfLoB-42" value="Donation fee&lt;br&gt;from user" style="edgeLabel;html=1;align=center;verticalAlign=middle;resizable=0;points=[];" parent="xz_jrUkNwj7nFp_zfLoB-41" vertex="1" connectable="0">
          <mxGeometry x="0.1404" relative="1" as="geometry">
            <mxPoint y="-57" as="offset" />
          </mxGeometry>
        </mxCell>
        <mxCell id="xz_jrUkNwj7nFp_zfLoB-43" value="" style="curved=1;endArrow=classic;html=1;rounded=0;entryX=0.5;entryY=1;entryDx=0;entryDy=0;fillColor=#f8cecc;gradientColor=#ea6b66;strokeColor=#000000;shadow=0;dashed=1;" parent="WIyWlLk6GJQsqaUBKTNV-1" source="xz_jrUkNwj7nFp_zfLoB-19" target="xz_jrUkNwj7nFp_zfLoB-37" edge="1">
          <mxGeometry width="50" height="50" relative="1" as="geometry">
            <mxPoint x="540" y="560" as="sourcePoint" />
            <mxPoint x="590" y="510" as="targetPoint" />
            <Array as="points">
              <mxPoint x="600" y="530" />
              <mxPoint x="810" y="470" />
            </Array>
          </mxGeometry>
        </mxCell>
        <mxCell id="xz_jrUkNwj7nFp_zfLoB-44" value="Request donations&lt;br&gt;by zkSNARK" style="edgeLabel;html=1;align=center;verticalAlign=middle;resizable=0;points=[];" parent="xz_jrUkNwj7nFp_zfLoB-43" vertex="1" connectable="0">
          <mxGeometry x="0.0745" y="14" relative="1" as="geometry">
            <mxPoint y="1" as="offset" />
          </mxGeometry>
        </mxCell>
        <mxCell id="xz_jrUkNwj7nFp_zfLoB-45" value="" style="endArrow=classic;html=1;rounded=0;exitX=0.5;exitY=1;exitDx=0;exitDy=0;shape=link;" parent="WIyWlLk6GJQsqaUBKTNV-1" source="xz_jrUkNwj7nFp_zfLoB-37" edge="1">
          <mxGeometry width="50" height="50" relative="1" as="geometry">
            <mxPoint x="680" y="290" as="sourcePoint" />
            <mxPoint x="630" y="200" as="targetPoint" />
            <Array as="points">
              <mxPoint x="770" y="420" />
            </Array>
          </mxGeometry>
        </mxCell>
        <mxCell id="xz_jrUkNwj7nFp_zfLoB-46" value="Provider&lt;br&gt;is a wallet&lt;br&gt;controlled by us" style="shape=parallelogram;perimeter=parallelogramPerimeter;whiteSpace=wrap;html=1;fixedSize=1;" parent="WIyWlLk6GJQsqaUBKTNV-1" vertex="1">
          <mxGeometry x="770" y="540" width="120" height="60" as="geometry" />
        </mxCell>
        <mxCell id="xz_jrUkNwj7nFp_zfLoB-47" value="" style="curved=1;endArrow=classic;html=1;rounded=0;entryX=0;entryY=0.5;entryDx=0;entryDy=0;dashed=1;" parent="WIyWlLk6GJQsqaUBKTNV-1" target="xz_jrUkNwj7nFp_zfLoB-46" edge="1">
          <mxGeometry width="50" height="50" relative="1" as="geometry">
            <mxPoint x="410" y="440" as="sourcePoint" />
            <mxPoint x="560" y="600" as="targetPoint" />
            <Array as="points">
              <mxPoint x="470" y="520" />
              <mxPoint x="590" y="590" />
            </Array>
          </mxGeometry>
        </mxCell>
        <mxCell id="xz_jrUkNwj7nFp_zfLoB-48" value="Request donations&lt;br style=&quot;border-color: var(--border-color);&quot;&gt;by&amp;nbsp;provider" style="edgeLabel;html=1;align=center;verticalAlign=middle;resizable=0;points=[];" parent="xz_jrUkNwj7nFp_zfLoB-47" vertex="1" connectable="0">
          <mxGeometry x="0.1608" y="15" relative="1" as="geometry">
            <mxPoint as="offset" />
          </mxGeometry>
        </mxCell>
        <mxCell id="xz_jrUkNwj7nFp_zfLoB-49" value="" style="endArrow=classic;html=1;rounded=0;exitX=0.75;exitY=0;exitDx=0;exitDy=0;entryX=0.617;entryY=0.983;entryDx=0;entryDy=0;entryPerimeter=0;dashed=1;" parent="WIyWlLk6GJQsqaUBKTNV-1" source="xz_jrUkNwj7nFp_zfLoB-46" target="xz_jrUkNwj7nFp_zfLoB-37" edge="1">
          <mxGeometry width="50" height="50" relative="1" as="geometry">
            <mxPoint x="630" y="720" as="sourcePoint" />
            <mxPoint x="830" y="410" as="targetPoint" />
          </mxGeometry>
        </mxCell>
        <mxCell id="xz_jrUkNwj7nFp_zfLoB-50" value="Request&lt;br&gt;donation" style="edgeLabel;html=1;align=center;verticalAlign=middle;resizable=0;points=[];" parent="xz_jrUkNwj7nFp_zfLoB-49" vertex="1" connectable="0">
          <mxGeometry x="-0.1674" y="1" relative="1" as="geometry">
            <mxPoint x="1" as="offset" />
          </mxGeometry>
        </mxCell>
        <mxCell id="WPJfF_0o5p36wVQKlJD5-43" style="edgeStyle=orthogonalEdgeStyle;rounded=0;orthogonalLoop=1;jettySize=auto;html=1;exitX=1;exitY=0.367;exitDx=0;exitDy=0;exitPerimeter=0;entryX=1;entryY=0.25;entryDx=0;entryDy=0;startArrow=classic;startFill=1;" parent="WIyWlLk6GJQsqaUBKTNV-1" source="WPJfF_0o5p36wVQKlJD5-0" target="WPJfF_0o5p36wVQKlJD5-14" edge="1">
          <mxGeometry relative="1" as="geometry">
            <Array as="points">
              <mxPoint x="2270" y="-980" />
              <mxPoint x="2270" y="-403" />
            </Array>
          </mxGeometry>
        </mxCell>
        <mxCell id="WPJfF_0o5p36wVQKlJD5-44" value="Moderates the blacklist" style="edgeLabel;html=1;align=center;verticalAlign=middle;resizable=0;points=[];" parent="WPJfF_0o5p36wVQKlJD5-43" vertex="1" connectable="0">
          <mxGeometry x="-0.8099" y="3" relative="1" as="geometry">
            <mxPoint as="offset" />
          </mxGeometry>
        </mxCell>
        <mxCell id="WPJfF_0o5p36wVQKlJD5-0" value="Author with NFT" style="verticalLabelPosition=bottom;verticalAlign=top;html=1;shape=mxgraph.basic.star;fillColor=#ffcd28;strokeColor=#d79b00;gradientColor=#ffa500;" parent="WIyWlLk6GJQsqaUBKTNV-1" vertex="1">
          <mxGeometry x="1885" y="-1015" width="100" height="95" as="geometry" />
        </mxCell>
        <mxCell id="WPJfF_0o5p36wVQKlJD5-1" value="" style="endArrow=classic;html=1;rounded=0;entryX=0.5;entryY=0;entryDx=0;entryDy=0;" parent="WIyWlLk6GJQsqaUBKTNV-1" source="WPJfF_0o5p36wVQKlJD5-0" target="WPJfF_0o5p36wVQKlJD5-3" edge="1">
          <mxGeometry width="50" height="50" relative="1" as="geometry">
            <mxPoint x="1673" y="-683" as="sourcePoint" />
            <mxPoint x="1793" y="-683" as="targetPoint" />
          </mxGeometry>
        </mxCell>
        <mxCell id="WPJfF_0o5p36wVQKlJD5-2" value="&lt;div style=&quot;font-size: 12px;&quot;&gt;&lt;font style=&quot;font-size: 12px;&quot;&gt;Creates&lt;/font&gt;&lt;/div&gt;&lt;div style=&quot;font-size: 12px;&quot;&gt;&lt;font style=&quot;font-size: 12px;&quot;&gt;a new subscription&lt;/font&gt;&lt;/div&gt;" style="edgeLabel;html=1;align=center;verticalAlign=middle;resizable=0;points=[];" parent="WPJfF_0o5p36wVQKlJD5-1" vertex="1" connectable="0">
          <mxGeometry x="0.25" y="1" relative="1" as="geometry">
            <mxPoint x="-1" as="offset" />
          </mxGeometry>
        </mxCell>
        <mxCell id="WPJfF_0o5p36wVQKlJD5-3" value="&lt;div&gt;Subscription&lt;br&gt;&lt;/div&gt;&lt;div&gt;is limited&lt;/div&gt;&lt;div&gt;in time&lt;/div&gt;" style="rhombus;whiteSpace=wrap;html=1;" parent="WIyWlLk6GJQsqaUBKTNV-1" vertex="1">
          <mxGeometry x="1860" y="-820" width="150" height="150" as="geometry" />
        </mxCell>
        <mxCell id="WPJfF_0o5p36wVQKlJD5-4" value="" style="endArrow=classic;html=1;rounded=0;exitX=1;exitY=0.5;exitDx=0;exitDy=0;entryX=0.5;entryY=0;entryDx=0;entryDy=0;" parent="WIyWlLk6GJQsqaUBKTNV-1" source="WPJfF_0o5p36wVQKlJD5-3" target="WPJfF_0o5p36wVQKlJD5-5" edge="1">
          <mxGeometry width="50" height="50" relative="1" as="geometry">
            <mxPoint x="2040" y="-780" as="sourcePoint" />
            <mxPoint x="2120" y="-660" as="targetPoint" />
            <Array as="points">
              <mxPoint x="2120" y="-745" />
            </Array>
          </mxGeometry>
        </mxCell>
        <mxCell id="WPJfF_0o5p36wVQKlJD5-7" value="&lt;font style=&quot;font-size: 12px;&quot;&gt;Yes&lt;/font&gt;" style="edgeLabel;html=1;align=center;verticalAlign=middle;resizable=0;points=[];" parent="WPJfF_0o5p36wVQKlJD5-4" vertex="1" connectable="0">
          <mxGeometry x="-0.4092" y="-1" relative="1" as="geometry">
            <mxPoint as="offset" />
          </mxGeometry>
        </mxCell>
        <mxCell id="WPJfF_0o5p36wVQKlJD5-15" style="edgeStyle=orthogonalEdgeStyle;rounded=0;orthogonalLoop=1;jettySize=auto;html=1;exitX=0.5;exitY=1;exitDx=0;exitDy=0;entryX=0.75;entryY=0;entryDx=0;entryDy=0;" parent="WIyWlLk6GJQsqaUBKTNV-1" source="WPJfF_0o5p36wVQKlJD5-5" target="WPJfF_0o5p36wVQKlJD5-14" edge="1">
          <mxGeometry relative="1" as="geometry" />
        </mxCell>
        <mxCell id="WPJfF_0o5p36wVQKlJD5-5" value="&lt;div&gt;Regular Subscription:&lt;/div&gt;&lt;div&gt;&lt;br&gt;&lt;/div&gt;&lt;div&gt;Input values:&lt;/div&gt;&lt;div&gt;- hash (instead of name)&lt;/div&gt;&lt;div&gt;- payment period&lt;/div&gt;&lt;div&gt;- token&lt;/div&gt;&lt;div&gt;- price&lt;/div&gt;&lt;div&gt;&lt;br&gt;&lt;/div&gt;&lt;div&gt;Unregulated values:&lt;/div&gt;&lt;div&gt;subscription id&lt;/div&gt;&lt;div&gt;list of participants&lt;/div&gt;&lt;div&gt;rating&lt;/div&gt;" style="shape=internalStorage;whiteSpace=wrap;html=1;backgroundOutline=1;" parent="WIyWlLk6GJQsqaUBKTNV-1" vertex="1">
          <mxGeometry x="2010" y="-700" width="220" height="220" as="geometry" />
        </mxCell>
        <mxCell id="WPJfF_0o5p36wVQKlJD5-16" style="edgeStyle=orthogonalEdgeStyle;rounded=0;orthogonalLoop=1;jettySize=auto;html=1;exitX=0.5;exitY=1;exitDx=0;exitDy=0;entryX=0.25;entryY=0;entryDx=0;entryDy=0;" parent="WIyWlLk6GJQsqaUBKTNV-1" source="WPJfF_0o5p36wVQKlJD5-8" target="WPJfF_0o5p36wVQKlJD5-14" edge="1">
          <mxGeometry relative="1" as="geometry" />
        </mxCell>
        <mxCell id="WPJfF_0o5p36wVQKlJD5-8" value="&lt;div&gt;One-Time Subscription&lt;/div&gt;&lt;div&gt;&lt;br&gt;&lt;/div&gt;&lt;div&gt;Input values:&lt;/div&gt;&lt;div&gt;- hash (instead of name)&lt;/div&gt;&lt;div&gt;- token&lt;/div&gt;&lt;div&gt;- price&lt;/div&gt;&lt;div&gt;&lt;br&gt;&lt;/div&gt;&lt;div&gt;Unregulated values:&lt;/div&gt;&lt;div&gt;subscription id&lt;/div&gt;&lt;div&gt;payment period = 0&lt;/div&gt;&lt;div&gt;list of participants&lt;/div&gt;&lt;div&gt;rating&lt;/div&gt;" style="shape=internalStorage;whiteSpace=wrap;html=1;backgroundOutline=1;" parent="WIyWlLk6GJQsqaUBKTNV-1" vertex="1">
          <mxGeometry x="1640" y="-700" width="220" height="220" as="geometry" />
        </mxCell>
        <mxCell id="WPJfF_0o5p36wVQKlJD5-9" value="" style="endArrow=classic;html=1;rounded=0;exitX=0;exitY=0.5;exitDx=0;exitDy=0;entryX=0.5;entryY=0;entryDx=0;entryDy=0;" parent="WIyWlLk6GJQsqaUBKTNV-1" source="WPJfF_0o5p36wVQKlJD5-3" target="WPJfF_0o5p36wVQKlJD5-8" edge="1">
          <mxGeometry width="50" height="50" relative="1" as="geometry">
            <mxPoint x="1670" y="-770" as="sourcePoint" />
            <mxPoint x="1720" y="-820" as="targetPoint" />
            <Array as="points">
              <mxPoint x="1750" y="-745" />
            </Array>
          </mxGeometry>
        </mxCell>
        <mxCell id="WPJfF_0o5p36wVQKlJD5-10" value="&lt;font style=&quot;font-size: 12px;&quot;&gt;No&lt;/font&gt;" style="edgeLabel;html=1;align=center;verticalAlign=middle;resizable=0;points=[];" parent="WPJfF_0o5p36wVQKlJD5-9" vertex="1" connectable="0">
          <mxGeometry x="-0.628" y="4" relative="1" as="geometry">
            <mxPoint as="offset" />
          </mxGeometry>
        </mxCell>
        <mxCell id="WPJfF_0o5p36wVQKlJD5-17" style="edgeStyle=orthogonalEdgeStyle;rounded=0;orthogonalLoop=1;jettySize=auto;html=1;exitX=0.5;exitY=0.5;exitDx=0;exitDy=0;exitPerimeter=0;entryX=0;entryY=0.5;entryDx=0;entryDy=0;" parent="WIyWlLk6GJQsqaUBKTNV-1" source="WPJfF_0o5p36wVQKlJD5-12" target="WPJfF_0o5p36wVQKlJD5-40" edge="1">
          <mxGeometry relative="1" as="geometry" />
        </mxCell>
        <mxCell id="WPJfF_0o5p36wVQKlJD5-18" value="&lt;div&gt;Subscribes&lt;/div&gt;&lt;div&gt;&lt;span style=&quot;font-size: 12px;&quot;&gt;to the channel,&lt;/span&gt;&lt;/div&gt;&lt;div&gt;&lt;span style=&quot;font-size: 12px;&quot;&gt;makes payment&lt;/span&gt;&lt;/div&gt;" style="edgeLabel;html=1;align=center;verticalAlign=middle;resizable=0;points=[];" parent="WPJfF_0o5p36wVQKlJD5-17" vertex="1" connectable="0">
          <mxGeometry x="-0.5939" relative="1" as="geometry">
            <mxPoint x="51" as="offset" />
          </mxGeometry>
        </mxCell>
        <mxCell id="WPJfF_0o5p36wVQKlJD5-12" value="Participant&amp;nbsp;" style="shape=umlActor;verticalLabelPosition=bottom;verticalAlign=top;html=1;outlineConnect=0;fillColor=#dae8fc;strokeColor=#6c8ebf;gradientColor=#7ea6e0;" parent="WIyWlLk6GJQsqaUBKTNV-1" vertex="1">
          <mxGeometry x="1510" y="-110" width="40" height="75" as="geometry" />
        </mxCell>
        <mxCell id="WPJfF_0o5p36wVQKlJD5-14" value="Subscriptions&lt;br&gt;&lt;br&gt;Smart contract" style="shape=document;whiteSpace=wrap;html=1;boundedLbl=1;" parent="WIyWlLk6GJQsqaUBKTNV-1" vertex="1">
          <mxGeometry x="1830" y="-440" width="200" height="150" as="geometry" />
        </mxCell>
        <mxCell id="WPJfF_0o5p36wVQKlJD5-21" style="edgeStyle=orthogonalEdgeStyle;rounded=0;orthogonalLoop=1;jettySize=auto;html=1;exitX=0.5;exitY=0;exitDx=0;exitDy=0;entryX=0.496;entryY=0.858;entryDx=0;entryDy=0;entryPerimeter=0;" parent="WIyWlLk6GJQsqaUBKTNV-1" source="WPJfF_0o5p36wVQKlJD5-20" target="WPJfF_0o5p36wVQKlJD5-14" edge="1">
          <mxGeometry relative="1" as="geometry" />
        </mxCell>
        <mxCell id="WPJfF_0o5p36wVQKlJD5-20" value="&lt;div&gt;Data to be entered&lt;/div&gt;&lt;div&gt;into the contract:&lt;/div&gt;&lt;div&gt;&lt;br&gt;&lt;/div&gt;&lt;div&gt;Participant&#39;s address&lt;/div&gt;&lt;div&gt;Payment time&lt;/div&gt;" style="shape=internalStorage;whiteSpace=wrap;html=1;backgroundOutline=1;" parent="WIyWlLk6GJQsqaUBKTNV-1" vertex="1">
          <mxGeometry x="1850" y="-240" width="160" height="130" as="geometry" />
        </mxCell>
        <mxCell id="WPJfF_0o5p36wVQKlJD5-25" value="Web3 app" style="ellipse;shape=cloud;whiteSpace=wrap;html=1;" parent="WIyWlLk6GJQsqaUBKTNV-1" vertex="1">
          <mxGeometry x="1480" y="-412.5" width="140" height="95" as="geometry" />
        </mxCell>
        <mxCell id="WPJfF_0o5p36wVQKlJD5-26" value="" style="endArrow=classic;startArrow=classic;html=1;rounded=0;entryX=0;entryY=0.5;entryDx=0;entryDy=0;exitX=0.875;exitY=0.5;exitDx=0;exitDy=0;exitPerimeter=0;" parent="WIyWlLk6GJQsqaUBKTNV-1" edge="1">
          <mxGeometry width="50" height="50" relative="1" as="geometry">
            <mxPoint x="1605" y="-383" as="sourcePoint" />
            <mxPoint x="1830" y="-383" as="targetPoint" />
          </mxGeometry>
        </mxCell>
        <mxCell id="WPJfF_0o5p36wVQKlJD5-27" value="&lt;font style=&quot;font-size: 12px;&quot;&gt;Verification of participants&#39;&lt;br&gt;payments&lt;/font&gt;" style="edgeLabel;html=1;align=center;verticalAlign=middle;resizable=0;points=[];" parent="WPJfF_0o5p36wVQKlJD5-26" vertex="1" connectable="0">
          <mxGeometry x="-0.1328" relative="1" as="geometry">
            <mxPoint as="offset" />
          </mxGeometry>
        </mxCell>
        <mxCell id="WPJfF_0o5p36wVQKlJD5-32" style="edgeStyle=orthogonalEdgeStyle;rounded=0;orthogonalLoop=1;jettySize=auto;html=1;exitX=0.5;exitY=0.5;exitDx=0;exitDy=0;exitPerimeter=0;entryX=0.5;entryY=1;entryDx=0;entryDy=0;" parent="WIyWlLk6GJQsqaUBKTNV-1" source="WPJfF_0o5p36wVQKlJD5-30" target="WPJfF_0o5p36wVQKlJD5-31" edge="1">
          <mxGeometry relative="1" as="geometry" />
        </mxCell>
        <mxCell id="WPJfF_0o5p36wVQKlJD5-33" value="&lt;div style=&quot;font-size: 12px;&quot;&gt;&lt;font style=&quot;font-size: 12px;&quot;&gt;Voting&lt;/font&gt;&lt;/div&gt;&lt;div style=&quot;font-size: 12px;&quot;&gt;&lt;font style=&quot;font-size: 12px;&quot;&gt;for the channel&lt;/font&gt;&lt;/div&gt;" style="edgeLabel;html=1;align=center;verticalAlign=middle;resizable=0;points=[];" parent="WPJfF_0o5p36wVQKlJD5-32" vertex="1" connectable="0">
          <mxGeometry x="0.2473" relative="1" as="geometry">
            <mxPoint as="offset" />
          </mxGeometry>
        </mxCell>
        <mxCell id="WPJfF_0o5p36wVQKlJD5-30" value="Channel&lt;br&gt;subscriber" style="shape=umlActor;verticalLabelPosition=bottom;verticalAlign=top;html=1;outlineConnect=0;fillColor=#d5e8d4;strokeColor=#82b366;gradientColor=#97d077;" parent="WIyWlLk6GJQsqaUBKTNV-1" vertex="1">
          <mxGeometry x="2220" y="-110" width="40" height="75" as="geometry" />
        </mxCell>
        <mxCell id="WPJfF_0o5p36wVQKlJD5-34" style="edgeStyle=orthogonalEdgeStyle;rounded=0;orthogonalLoop=1;jettySize=auto;html=1;exitX=0;exitY=0.5;exitDx=0;exitDy=0;entryX=1;entryY=0.75;entryDx=0;entryDy=0;" parent="WIyWlLk6GJQsqaUBKTNV-1" source="WPJfF_0o5p36wVQKlJD5-31" target="WPJfF_0o5p36wVQKlJD5-14" edge="1">
          <mxGeometry relative="1" as="geometry" />
        </mxCell>
        <mxCell id="WPJfF_0o5p36wVQKlJD5-37" value="&lt;font style=&quot;font-size: 12px;&quot;&gt;Yes&lt;/font&gt;" style="edgeLabel;html=1;align=center;verticalAlign=middle;resizable=0;points=[];" parent="WPJfF_0o5p36wVQKlJD5-34" vertex="1" connectable="0">
          <mxGeometry x="-0.7995" relative="1" as="geometry">
            <mxPoint as="offset" />
          </mxGeometry>
        </mxCell>
        <mxCell id="WPJfF_0o5p36wVQKlJD5-38" value="The result is &lt;br&gt;recorded in&lt;br&gt;the blockchain" style="edgeLabel;html=1;align=center;verticalAlign=middle;resizable=0;points=[];" parent="WPJfF_0o5p36wVQKlJD5-34" vertex="1" connectable="0">
          <mxGeometry x="0.1669" y="-4" relative="1" as="geometry">
            <mxPoint as="offset" />
          </mxGeometry>
        </mxCell>
        <mxCell id="WPJfF_0o5p36wVQKlJD5-31" value="A timeout has &lt;br&gt;passed since &lt;br&gt;the payment &lt;br&gt;was made" style="rhombus;whiteSpace=wrap;html=1;" parent="WIyWlLk6GJQsqaUBKTNV-1" vertex="1">
          <mxGeometry x="2165" y="-340" width="150" height="150" as="geometry" />
        </mxCell>
        <mxCell id="WPJfF_0o5p36wVQKlJD5-35" value="" style="endArrow=classic;startArrow=classic;html=1;rounded=0;entryX=0;entryY=0.5;entryDx=0;entryDy=0;exitX=0.875;exitY=0.5;exitDx=0;exitDy=0;exitPerimeter=0;" parent="WIyWlLk6GJQsqaUBKTNV-1" edge="1">
          <mxGeometry width="50" height="50" relative="1" as="geometry">
            <mxPoint x="1605" y="-340" as="sourcePoint" />
            <mxPoint x="1830" y="-340" as="targetPoint" />
          </mxGeometry>
        </mxCell>
        <mxCell id="WPJfF_0o5p36wVQKlJD5-36" value="Getting the author&#39;s&lt;br&gt;rating" style="edgeLabel;html=1;align=center;verticalAlign=middle;resizable=0;points=[];" parent="WPJfF_0o5p36wVQKlJD5-35" vertex="1" connectable="0">
          <mxGeometry x="-0.1328" relative="1" as="geometry">
            <mxPoint as="offset" />
          </mxGeometry>
        </mxCell>
        <mxCell id="WPJfF_0o5p36wVQKlJD5-41" style="edgeStyle=orthogonalEdgeStyle;rounded=0;orthogonalLoop=1;jettySize=auto;html=1;exitX=1;exitY=0.5;exitDx=0;exitDy=0;entryX=0.5;entryY=1;entryDx=0;entryDy=0;" parent="WIyWlLk6GJQsqaUBKTNV-1" source="WPJfF_0o5p36wVQKlJD5-40" target="WPJfF_0o5p36wVQKlJD5-20" edge="1">
          <mxGeometry relative="1" as="geometry" />
        </mxCell>
        <mxCell id="WPJfF_0o5p36wVQKlJD5-42" value="&lt;font style=&quot;font-size: 12px;&quot;&gt;No&lt;/font&gt;" style="edgeLabel;html=1;align=center;verticalAlign=middle;resizable=0;points=[];" parent="WPJfF_0o5p36wVQKlJD5-41" vertex="1" connectable="0">
          <mxGeometry x="-0.4696" y="-1" relative="1" as="geometry">
            <mxPoint as="offset" />
          </mxGeometry>
        </mxCell>
        <mxCell id="WPJfF_0o5p36wVQKlJD5-40" value="&lt;div&gt;Address in&lt;/div&gt;&lt;div&gt;the blacklist&lt;/div&gt;" style="rhombus;whiteSpace=wrap;html=1;" parent="WIyWlLk6GJQsqaUBKTNV-1" vertex="1">
          <mxGeometry x="1695" y="-127.5" width="110" height="110" as="geometry" />
        </mxCell>
        <mxCell id="J_jTWQxcfE74HYZ9Y3L8-0" value="Author with NFT" style="verticalLabelPosition=bottom;verticalAlign=top;html=1;shape=mxgraph.basic.star;fillColor=#ffcd28;strokeColor=#d79b00;gradientColor=#ffa500;" parent="WIyWlLk6GJQsqaUBKTNV-1" vertex="1">
          <mxGeometry x="940" y="-800" width="100" height="95" as="geometry" />
        </mxCell>
        <mxCell id="J_jTWQxcfE74HYZ9Y3L8-12" style="edgeStyle=orthogonalEdgeStyle;rounded=0;orthogonalLoop=1;jettySize=auto;html=1;exitX=1.009;exitY=0.447;exitDx=0;exitDy=0;entryX=0.292;entryY=0.595;entryDx=0;entryDy=0;entryPerimeter=0;exitPerimeter=0;" parent="WIyWlLk6GJQsqaUBKTNV-1" source="J_jTWQxcfE74HYZ9Y3L8-1" target="J_jTWQxcfE74HYZ9Y3L8-0" edge="1">
          <mxGeometry relative="1" as="geometry" />
        </mxCell>
        <mxCell id="J_jTWQxcfE74HYZ9Y3L8-13" value="&lt;font style=&quot;font-size: 12px;&quot;&gt;Donation&lt;/font&gt;" style="edgeLabel;html=1;align=center;verticalAlign=middle;resizable=0;points=[];" parent="J_jTWQxcfE74HYZ9Y3L8-12" vertex="1" connectable="0">
          <mxGeometry x="0.063" relative="1" as="geometry">
            <mxPoint as="offset" />
          </mxGeometry>
        </mxCell>
        <mxCell id="J_jTWQxcfE74HYZ9Y3L8-18" style="edgeStyle=orthogonalEdgeStyle;rounded=0;orthogonalLoop=1;jettySize=auto;html=1;exitX=1;exitY=0.25;exitDx=0;exitDy=0;entryX=0.212;entryY=0.995;entryDx=0;entryDy=0;entryPerimeter=0;" parent="WIyWlLk6GJQsqaUBKTNV-1" source="J_jTWQxcfE74HYZ9Y3L8-1" target="J_jTWQxcfE74HYZ9Y3L8-16" edge="1">
          <mxGeometry relative="1" as="geometry" />
        </mxCell>
        <mxCell id="J_jTWQxcfE74HYZ9Y3L8-19" value="&lt;font style=&quot;font-size: 12px;&quot;&gt;Commission&lt;/font&gt;" style="edgeLabel;html=1;align=center;verticalAlign=middle;resizable=0;points=[];" parent="J_jTWQxcfE74HYZ9Y3L8-18" vertex="1" connectable="0">
          <mxGeometry x="-0.3041" y="1" relative="1" as="geometry">
            <mxPoint x="-1" as="offset" />
          </mxGeometry>
        </mxCell>
        <mxCell id="J_jTWQxcfE74HYZ9Y3L8-1" value="Smart contract&lt;br&gt;Donation" style="shape=document;whiteSpace=wrap;html=1;boundedLbl=1;" parent="WIyWlLk6GJQsqaUBKTNV-1" vertex="1">
          <mxGeometry x="600" y="-810" width="200" height="150" as="geometry" />
        </mxCell>
        <mxCell id="J_jTWQxcfE74HYZ9Y3L8-17" style="edgeStyle=orthogonalEdgeStyle;rounded=0;orthogonalLoop=1;jettySize=auto;html=1;exitX=0.875;exitY=0.5;exitDx=0;exitDy=0;exitPerimeter=0;entryX=0.75;entryY=0;entryDx=0;entryDy=0;" parent="WIyWlLk6GJQsqaUBKTNV-1" source="J_jTWQxcfE74HYZ9Y3L8-3" target="J_jTWQxcfE74HYZ9Y3L8-1" edge="1">
          <mxGeometry relative="1" as="geometry">
            <Array as="points">
              <mxPoint x="750" y="-935" />
            </Array>
          </mxGeometry>
        </mxCell>
        <mxCell id="J_jTWQxcfE74HYZ9Y3L8-3" value="Uniswap V3&lt;br&gt;&lt;br&gt;Tokens are swapping" style="ellipse;shape=cloud;whiteSpace=wrap;html=1;" parent="WIyWlLk6GJQsqaUBKTNV-1" vertex="1">
          <mxGeometry x="490" y="-1015" width="210" height="160" as="geometry" />
        </mxCell>
        <mxCell id="J_jTWQxcfE74HYZ9Y3L8-6" style="edgeStyle=orthogonalEdgeStyle;rounded=0;orthogonalLoop=1;jettySize=auto;html=1;exitX=0.5;exitY=0.5;exitDx=0;exitDy=0;exitPerimeter=0;entryX=0;entryY=0.5;entryDx=0;entryDy=0;" parent="WIyWlLk6GJQsqaUBKTNV-1" source="J_jTWQxcfE74HYZ9Y3L8-4" target="J_jTWQxcfE74HYZ9Y3L8-7" edge="1">
          <mxGeometry relative="1" as="geometry">
            <mxPoint x="235" y="-772" as="targetPoint" />
          </mxGeometry>
        </mxCell>
        <mxCell id="J_jTWQxcfE74HYZ9Y3L8-8" value="&lt;font style=&quot;font-size: 12px;&quot;&gt;Token&lt;br&gt;donation&lt;/font&gt;" style="edgeLabel;html=1;align=center;verticalAlign=middle;resizable=0;points=[];" parent="J_jTWQxcfE74HYZ9Y3L8-6" vertex="1" connectable="0">
          <mxGeometry x="0.1943" y="-2" relative="1" as="geometry">
            <mxPoint as="offset" />
          </mxGeometry>
        </mxCell>
        <mxCell id="J_jTWQxcfE74HYZ9Y3L8-4" value="Participant&amp;nbsp;" style="shape=umlActor;verticalLabelPosition=bottom;verticalAlign=top;html=1;outlineConnect=0;fillColor=#dae8fc;strokeColor=#6c8ebf;gradientColor=#7ea6e0;" parent="WIyWlLk6GJQsqaUBKTNV-1" vertex="1">
          <mxGeometry x="130" y="-810" width="40" height="75" as="geometry" />
        </mxCell>
        <mxCell id="J_jTWQxcfE74HYZ9Y3L8-9" style="edgeStyle=orthogonalEdgeStyle;rounded=0;orthogonalLoop=1;jettySize=auto;html=1;exitX=1;exitY=0.5;exitDx=0;exitDy=0;entryX=0;entryY=0.25;entryDx=0;entryDy=0;" parent="WIyWlLk6GJQsqaUBKTNV-1" source="J_jTWQxcfE74HYZ9Y3L8-7" target="J_jTWQxcfE74HYZ9Y3L8-1" edge="1">
          <mxGeometry relative="1" as="geometry" />
        </mxCell>
        <mxCell id="J_jTWQxcfE74HYZ9Y3L8-10" value="&lt;span style=&quot;font-size: 12px;&quot;&gt;Yes&lt;/span&gt;" style="edgeLabel;html=1;align=center;verticalAlign=middle;resizable=0;points=[];" parent="J_jTWQxcfE74HYZ9Y3L8-9" vertex="1" connectable="0">
          <mxGeometry x="0.2655" y="1" relative="1" as="geometry">
            <mxPoint as="offset" />
          </mxGeometry>
        </mxCell>
        <mxCell id="J_jTWQxcfE74HYZ9Y3L8-14" style="edgeStyle=orthogonalEdgeStyle;rounded=0;orthogonalLoop=1;jettySize=auto;html=1;exitX=0.5;exitY=0;exitDx=0;exitDy=0;entryX=0.16;entryY=0.55;entryDx=0;entryDy=0;entryPerimeter=0;" parent="WIyWlLk6GJQsqaUBKTNV-1" source="J_jTWQxcfE74HYZ9Y3L8-7" target="J_jTWQxcfE74HYZ9Y3L8-3" edge="1">
          <mxGeometry relative="1" as="geometry" />
        </mxCell>
        <mxCell id="J_jTWQxcfE74HYZ9Y3L8-15" value="&lt;font style=&quot;font-size: 12px;&quot;&gt;No&lt;/font&gt;" style="edgeLabel;html=1;align=center;verticalAlign=middle;resizable=0;points=[];" parent="J_jTWQxcfE74HYZ9Y3L8-14" vertex="1" connectable="0">
          <mxGeometry x="-0.3972" y="1" relative="1" as="geometry">
            <mxPoint as="offset" />
          </mxGeometry>
        </mxCell>
        <mxCell id="J_jTWQxcfE74HYZ9Y3L8-7" value="Is the token&lt;br&gt;accepted&lt;br&gt;by the author?" style="rhombus;whiteSpace=wrap;html=1;" parent="WIyWlLk6GJQsqaUBKTNV-1" vertex="1">
          <mxGeometry x="300" y="-855" width="170" height="165" as="geometry" />
        </mxCell>
        <mxCell id="J_jTWQxcfE74HYZ9Y3L8-16" value="Main contract&lt;br&gt;&lt;br&gt;Collects statistics.&lt;br&gt;Recalculates the author&#39;s rating." style="shape=document;whiteSpace=wrap;html=1;boundedLbl=1;" parent="WIyWlLk6GJQsqaUBKTNV-1" vertex="1">
          <mxGeometry x="840" y="-990" width="200" height="150" as="geometry" />
        </mxCell>
        <mxCell id="VLouAwbYnc6smkloK5zz-10" style="edgeStyle=orthogonalEdgeStyle;rounded=0;orthogonalLoop=1;jettySize=auto;html=1;exitX=1;exitY=0.5;exitDx=0;exitDy=0;entryX=0.009;entryY=0.42;entryDx=0;entryDy=0;entryPerimeter=0;" edge="1" parent="WIyWlLk6GJQsqaUBKTNV-1" source="VLouAwbYnc6smkloK5zz-0" target="VLouAwbYnc6smkloK5zz-9">
          <mxGeometry relative="1" as="geometry" />
        </mxCell>
        <mxCell id="VLouAwbYnc6smkloK5zz-11" value="Get NFT" style="edgeLabel;html=1;align=center;verticalAlign=middle;resizable=0;points=[];" vertex="1" connectable="0" parent="VLouAwbYnc6smkloK5zz-10">
          <mxGeometry x="-0.2329" y="-3" relative="1" as="geometry">
            <mxPoint x="-1" as="offset" />
          </mxGeometry>
        </mxCell>
        <mxCell id="VLouAwbYnc6smkloK5zz-0" value="Smart-contract" style="shape=document;whiteSpace=wrap;html=1;boundedLbl=1;" vertex="1" parent="WIyWlLk6GJQsqaUBKTNV-1">
          <mxGeometry x="1765" y="280" width="120" height="80" as="geometry" />
        </mxCell>
        <mxCell id="VLouAwbYnc6smkloK5zz-7" style="edgeStyle=orthogonalEdgeStyle;rounded=0;orthogonalLoop=1;jettySize=auto;html=1;exitX=1;exitY=0.367;exitDx=0;exitDy=0;exitPerimeter=0;entryX=0.002;entryY=0.403;entryDx=0;entryDy=0;entryPerimeter=0;" edge="1" parent="WIyWlLk6GJQsqaUBKTNV-1" source="VLouAwbYnc6smkloK5zz-6" target="VLouAwbYnc6smkloK5zz-0">
          <mxGeometry relative="1" as="geometry" />
        </mxCell>
        <mxCell id="VLouAwbYnc6smkloK5zz-8" value="Create NFT&lt;br&gt;pay fee" style="edgeLabel;html=1;align=center;verticalAlign=middle;resizable=0;points=[];" vertex="1" connectable="0" parent="VLouAwbYnc6smkloK5zz-7">
          <mxGeometry x="0.1606" y="-4" relative="1" as="geometry">
            <mxPoint as="offset" />
          </mxGeometry>
        </mxCell>
        <mxCell id="VLouAwbYnc6smkloK5zz-6" value="Author" style="verticalLabelPosition=bottom;verticalAlign=top;html=1;shape=mxgraph.basic.star;fillColor=#dae8fc;strokeColor=#6c8ebf;gradientColor=#7ea6e0;" vertex="1" parent="WIyWlLk6GJQsqaUBKTNV-1">
          <mxGeometry x="1554" y="280" width="100" height="95" as="geometry" />
        </mxCell>
        <mxCell id="VLouAwbYnc6smkloK5zz-13" style="edgeStyle=orthogonalEdgeStyle;rounded=0;orthogonalLoop=1;jettySize=auto;html=1;" edge="1" parent="WIyWlLk6GJQsqaUBKTNV-1" source="VLouAwbYnc6smkloK5zz-9" target="VLouAwbYnc6smkloK5zz-15">
          <mxGeometry relative="1" as="geometry">
            <mxPoint x="2188.2000000000003" y="326.8000000000002" as="targetPoint" />
          </mxGeometry>
        </mxCell>
        <mxCell id="VLouAwbYnc6smkloK5zz-9" value="Author with NFT" style="verticalLabelPosition=bottom;verticalAlign=top;html=1;shape=mxgraph.basic.star;fillColor=#ffcd28;strokeColor=#d79b00;gradientColor=#ffa500;" vertex="1" parent="WIyWlLk6GJQsqaUBKTNV-1">
          <mxGeometry x="1968" y="280" width="100" height="95" as="geometry" />
        </mxCell>
        <mxCell id="VLouAwbYnc6smkloK5zz-18" value="" style="edgeStyle=orthogonalEdgeStyle;rounded=0;orthogonalLoop=1;jettySize=auto;html=1;" edge="1" parent="WIyWlLk6GJQsqaUBKTNV-1" source="VLouAwbYnc6smkloK5zz-15" target="VLouAwbYnc6smkloK5zz-17">
          <mxGeometry relative="1" as="geometry" />
        </mxCell>
        <mxCell id="VLouAwbYnc6smkloK5zz-21" style="edgeStyle=orthogonalEdgeStyle;rounded=0;orthogonalLoop=1;jettySize=auto;html=1;exitX=0.75;exitY=1;exitDx=0;exitDy=0;entryX=-0.005;entryY=0.304;entryDx=0;entryDy=0;entryPerimeter=0;" edge="1" parent="WIyWlLk6GJQsqaUBKTNV-1" source="VLouAwbYnc6smkloK5zz-15" target="VLouAwbYnc6smkloK5zz-20">
          <mxGeometry relative="1" as="geometry" />
        </mxCell>
        <mxCell id="VLouAwbYnc6smkloK5zz-15" value="Configures profile" style="shape=process;whiteSpace=wrap;html=1;backgroundOutline=1;" vertex="1" parent="WIyWlLk6GJQsqaUBKTNV-1">
          <mxGeometry x="2110" y="297.5" width="120" height="60" as="geometry" />
        </mxCell>
        <mxCell id="VLouAwbYnc6smkloK5zz-16" value="DataBase" style="shape=cylinder3;whiteSpace=wrap;html=1;boundedLbl=1;backgroundOutline=1;size=15;" vertex="1" parent="WIyWlLk6GJQsqaUBKTNV-1">
          <mxGeometry x="2410" y="287.5" width="60" height="80" as="geometry" />
        </mxCell>
        <mxCell id="VLouAwbYnc6smkloK5zz-19" value="" style="edgeStyle=orthogonalEdgeStyle;rounded=0;orthogonalLoop=1;jettySize=auto;html=1;" edge="1" parent="WIyWlLk6GJQsqaUBKTNV-1" source="VLouAwbYnc6smkloK5zz-17" target="VLouAwbYnc6smkloK5zz-16">
          <mxGeometry relative="1" as="geometry" />
        </mxCell>
        <mxCell id="VLouAwbYnc6smkloK5zz-17" value="Image&lt;br&gt;(logo)" style="shape=note;whiteSpace=wrap;html=1;backgroundOutline=1;darkOpacity=0.05;" vertex="1" parent="WIyWlLk6GJQsqaUBKTNV-1">
          <mxGeometry x="2280" y="277.5" width="80" height="100" as="geometry" />
        </mxCell>
        <mxCell id="VLouAwbYnc6smkloK5zz-22" style="edgeStyle=orthogonalEdgeStyle;rounded=0;orthogonalLoop=1;jettySize=auto;html=1;exitX=0;exitY=0.5;exitDx=0;exitDy=0;exitPerimeter=0;" edge="1" parent="WIyWlLk6GJQsqaUBKTNV-1" source="VLouAwbYnc6smkloK5zz-20" target="VLouAwbYnc6smkloK5zz-27">
          <mxGeometry relative="1" as="geometry">
            <mxPoint x="1990" y="455" as="targetPoint" />
          </mxGeometry>
        </mxCell>
        <mxCell id="VLouAwbYnc6smkloK5zz-23" value="Saved in &lt;br&gt;the contract" style="edgeLabel;html=1;align=center;verticalAlign=middle;resizable=0;points=[];" vertex="1" connectable="0" parent="VLouAwbYnc6smkloK5zz-22">
          <mxGeometry x="-0.2091" y="-2" relative="1" as="geometry">
            <mxPoint as="offset" />
          </mxGeometry>
        </mxCell>
        <mxCell id="VLouAwbYnc6smkloK5zz-20" value="Channel Name&lt;br&gt;Description&lt;br&gt;Donations tokens" style="shape=note;whiteSpace=wrap;html=1;backgroundOutline=1;darkOpacity=0.05;" vertex="1" parent="WIyWlLk6GJQsqaUBKTNV-1">
          <mxGeometry x="2230" y="405" width="130" height="100" as="geometry" />
        </mxCell>
        <mxCell id="VLouAwbYnc6smkloK5zz-28" style="edgeStyle=orthogonalEdgeStyle;rounded=0;orthogonalLoop=1;jettySize=auto;html=1;exitX=0;exitY=0.5;exitDx=0;exitDy=0;entryX=0.222;entryY=1.017;entryDx=0;entryDy=0;entryPerimeter=0;" edge="1" parent="WIyWlLk6GJQsqaUBKTNV-1" source="VLouAwbYnc6smkloK5zz-27" target="VLouAwbYnc6smkloK5zz-0">
          <mxGeometry relative="1" as="geometry" />
        </mxCell>
        <mxCell id="VLouAwbYnc6smkloK5zz-27" value="&lt;b&gt;Dynamic NFT&lt;br&gt;&lt;/b&gt;&lt;br&gt;&lt;b&gt;The image contains&lt;/b&gt; the name of the channel and the rating according to the 5-point system in the form of stars&lt;br&gt;&lt;br&gt;&lt;b&gt;Metadata contains&lt;/b&gt;: channel description, time of creation, time of last editing, rating in numerical terms, number of donators, number of channels in social networks, etc." style="rounded=1;whiteSpace=wrap;html=1;" vertex="1" parent="WIyWlLk6GJQsqaUBKTNV-1">
          <mxGeometry x="1830" y="419" width="200" height="200" as="geometry" />
        </mxCell>
      </root>
    </mxGraphModel>
  </diagram>
</mxfile>
